<?xml version="1.0" standalone="no"?>
<!DOCTYPE svg PUBLIC "-//W3C//DTD SVG 20010904//EN"
 "http://www.w3.org/TR/2001/REC-SVG-20010904/DTD/svg10.dtd">
<svg version="1.0" xmlns="http://www.w3.org/2000/svg"
 width="304.764137pt" height="51.943471pt" viewBox="0 0 304.764137 51.943471"
 preserveAspectRatio="xMidYMid meet">
<metadata>
Created by potrace 1.12, written by Peter Selinger 2001-2015
</metadata>
<g transform="translate(-7.066424,59.943471) scale(0.100000,-0.100000)"
fill="#E30A17" stroke="none">
<path d="M273 590 c-49 -11 -119 -57 -149 -95 -101 -133 -54 -318 101 -391 47
-22 61 -24 240 -24 179 0 193 2 240 24 58 27 145 116 145 148 0 5 -26 8 -58 8
-47 0 -63 -4 -78 -21 -44 -48 -69 -54 -244 -54 -148 0 -169 2 -205 21 -77 41
-106 147 -58 213 46 61 62 66 231 69 186 4 212 0 256 -38 29 -26 41 -30 95
-30 l61 0 -19 39 c-28 53 -95 108 -155 126 -53 16 -342 20 -403 5z"/>
<path d="M1069 585 c-66 -21 -169 -118 -169 -160 0 -3 26 -5 59 -5 41 0 62 5
72 16 7 8 30 24 50 35 33 16 60 19 201 19 184 0 213 -8 256 -71 32 -47 28
-136 -9 -175 -47 -50 -74 -58 -224 -62 -160 -5 -209 5 -259 48 -29 26 -42 30
-90 30 -31 0 -56 -3 -56 -7 0 -19 54 -93 84 -117 64 -49 103 -56 295 -56 213
0 252 10 323 81 127 127 86 335 -82 413 -40 19 -66 21 -225 23 -135 2 -192 -1
-226 -12z"/>
<path d="M2085 591 c-148 -37 -233 -181 -191 -325 65 -223 370 -250 478 -42
97 188 -82 417 -287 367z"/>
<path d="M2789 586 c-190 -51 -251 -296 -107 -433 155 -149 413 -53 435 162
12 116 -67 237 -178 269 -62 19 -88 19 -150 2z"/>
<path d="M625 370 c-23 -26 -13 -68 21 -80 34 -13 430 -13 454 0 34 18 44 48
25 76 l-15 24 -234 0 c-219 0 -234 -1 -251 -20z"/>
</g>
</svg>
